<svg width="256" height="256" viewBox="0 0 256 256" fill="none" xmlns="http://www.w3.org/2000/svg">
  <rect width="256" height="256" rx="64" fill="url(#bg)"/>
  <path d="M82 70C82 57.8497 91.8497 48 104 48H152C164.15 48 174 57.8497 174 70V186C174 198.15 164.15 208 152 208H104C91.8497 208 82 198.15 82 186V70Z" fill="white" fill-opacity="0.18"/>
  <path d="M92 78C92 67.5066 100.507 59 111 59H145C155.493 59 164 67.5066 164 78V178C164 188.493 155.493 197 145 197H111C100.507 197 92 188.493 92 178V78Z" fill="white" fill-opacity="0.2"/>
  <path d="M128.786 74C149.598 74 166 90.6824 166 111.879C166 151.85 128 182 128 182C128 182 90 151.85 90 111.879C90 90.6824 106.402 74 127.214 74C135.949 74 143.748 77.1515 149.624 83.0374C152.292 85.7094 151.94 90.064 148.936 92.349C145.985 94.5936 141.781 94.1625 139.206 91.495C136.337 88.5232 132.472 86.7895 128 86.7895C119.388 86.7895 112.105 93.9543 112.105 103.632C112.105 124.627 128 140.853 128 140.853C128 140.853 143.895 124.627 143.895 103.632C143.895 101.767 143.624 99.9889 143.12 98.3202C142.004 94.6246 144.142 90.5798 147.864 89.5571C151.77 88.4838 155.87 90.7466 157.093 94.6086C158.006 97.4919 158.5 100.527 158.5 103.632C158.5 132.383 128 156.375 128 156.375C128 156.375 97.5 132.383 97.5 103.632C97.5 87.1961 110.516 74 128.786 74Z" fill="white"/>
  <circle cx="171" cy="84" r="21" fill="white"/>
  <path d="M170.804 75.6C174.884 75.6 178.196 78.9121 178.196 82.992C178.196 84.8484 177.511 86.5467 176.38 87.8462L171.082 94.3226C170.729 94.754 170.069 94.754 169.716 94.3226L164.418 87.8462C163.287 86.5467 162.602 84.8484 162.602 82.992C162.602 78.9121 165.914 75.6 169.994 75.6H170.804Z" fill="url(#accent)"/>
  <defs>
    <linearGradient id="bg" x1="34" y1="28" x2="214" y2="228" gradientUnits="userSpaceOnUse">
      <stop stop-color="#2D6CDF"/>
      <stop offset="1" stop-color="#2E9F6B"/>
    </linearGradient>
    <linearGradient id="accent" x1="165.5" y1="78" x2="177.5" y2="93.5" gradientUnits="userSpaceOnUse">
      <stop stop-color="#2D6CDF"/>
      <stop offset="1" stop-color="#2E9F6B"/>
    </linearGradient>
  </defs>
</svg>
